<svg viewBox="0 0 600 400" xmlns="http://www.w3.org/2000/svg">
  <!-- Background -->
  <rect width="600" height="400" fill="#f8f9fa" rx="10"/>
  
  <!-- Title -->
  <text x="300" y="40" font-family="sans-serif" font-size="18" font-weight="bold" text-anchor="middle" fill="#333">Git Reflog Recovery Workflow</text>

  <!-- Timeline/Commits -->
  <!-- Clean State -->
  <circle cx="100" cy="150" r="15" fill="#2ed573"/>
  <text x="100" y="185" font-family="sans-serif" font-size="12" text-anchor="middle" fill="#666">v2.0.2 (Clean)</text>
  
  <!-- Accidental Commits on Master -->
  <line x1="115" y1="150" x2="185" y2="150" stroke="#ccc" stroke-width="2"/>
  <circle cx="200" cy="150" r="15" fill="#ff4757" opacity="0.6"/>
  <line x1="215" y1="150" x2="285" y2="150" stroke="#ccc" stroke-width="2"/>
  <circle cx="300" cy="150" r="15" fill="#ff4757"/>
  <text x="250" y="130" font-family="sans-serif" font-size="12" text-anchor="middle" fill="#ff4757">Accidental Commits</text>

  <!-- Step 1: Reset Master -->
  <path d="M300 170 Q200 230 115 170" fill="none" stroke="#ff4757" stroke-width="2" stroke-dasharray="5,5"/>
  <text x="200" y="220" font-family="sans-serif" font-size="12" text-anchor="middle" fill="#ff4757" font-weight="bold">1. git reset --hard v2.0.2</text>
  <path d="M115 170 l10 0 l-5 -10 z" fill="#ff4757"/>

  <!-- Step 2: Reflog -->
  <rect x="380" y="100" width="180" height="120" rx="5" fill="#fff" stroke="#1e90ff" stroke-width="2"/>
  <text x="470" y="125" font-family="sans-serif" font-size="14" font-weight="bold" text-anchor="middle" fill="#1e90ff">Reflog</text>
  <text x="395" y="150" font-family="sans-serif" font-size="10" fill="#333">HEAD@{1}: reset: moving to v2.0.2</text>
  <text x="395" y="170" font-family="sans-serif" font-size="10" fill="#ff4757" font-weight="bold">HEAD@{2}: commit: EXR-24483...</text>
  <text x="395" y="190" font-family="sans-serif" font-size="10" fill="#333">HEAD@{3}: commit: EXR-24482...</text>
  
  <path d="M315 150 L370 150" stroke="#1e90ff" stroke-width="2"/>
  <text x="342" y="145" font-family="sans-serif" font-size="10" text-anchor="middle" fill="#1e90ff">Recorded!</text>

  <!-- Step 3: New Feature Branch -->
  <line x1="100" y1="165" x2="100" y2="300" stroke="#ccc" stroke-width="2" stroke-dasharray="4"/>
  <circle cx="100" cy="315" r="15" fill="#2ed573"/>
  <line x1="115" y1="315" x2="185" y2="315" stroke="#ccc" stroke-width="2"/>
  <circle cx="200" cy="315" r="15" fill="#1e90ff"/>
  <line x1="215" y1="315" x2="285" y2="315" stroke="#ccc" stroke-width="2"/>
  <circle cx="300" cy="315" r="15" fill="#1e90ff"/>
  <text x="250" y="345" font-family="sans-serif" font-size="12" text-anchor="middle" fill="#1e90ff">feature/EXR-24483</text>
  <text x="470" y="280" font-family="sans-serif" font-size="12" text-anchor="middle" fill="#1e90ff" font-weight="bold">3. git cherry-pick &amp; amend</text>
  <path d="M470 230 L470 290 Q470 315 315 315" fill="none" stroke="#1e90ff" stroke-width="2" stroke-dasharray="5,5"/>
  <path d="M315 315 l10 5 l0 -10 z" fill="#1e90ff"/>

  <!-- Legend -->
  <rect x="50" y="350" width="10" height="10" fill="#2ed573"/>
  <text x="65" y="360" font-family="sans-serif" font-size="10" fill="#333">Safe Base</text>
  <rect x="150" y="350" width="10" height="10" fill="#ff4757"/>
  <text x="165" y="360" font-family="sans-serif" font-size="10" fill="#333">Mistake</text>
  <rect x="250" y="350" width="10" height="10" fill="#1e90ff"/>
  <text x="265" y="360" font-family="sans-serif" font-size="10" fill="#333">Recovered</text>
</svg>
